<mxfile host="app.diagrams.net" modified="2024-07-26T16:07:46.601Z" agent="Mozilla/5.0 (Macintosh; Intel Mac OS X 10_15_7) AppleWebKit/537.36 (KHTML, like Gecko) Chrome/126.0.0.0 Safari/537.36" etag="X3ggzOl9n7QTxdA2DS7G" version="24.7.1" type="github">
  <diagram name="第 1 页" id="xQzKyNB7tQLblgpyR6mE">
    <mxGraphModel dx="1194" dy="731" grid="1" gridSize="10" guides="1" tooltips="1" connect="1" arrows="1" fold="1" page="1" pageScale="1" pageWidth="1600" pageHeight="900" math="0" shadow="0">
      <root>
        <mxCell id="0" />
        <mxCell id="1" parent="0" />
        <mxCell id="cl2BjI9Zqdi61-nf65X4-3" value="" style="group" parent="1" vertex="1" connectable="0">
          <mxGeometry x="120" y="160" width="280" height="320" as="geometry" />
        </mxCell>
        <mxCell id="cl2BjI9Zqdi61-nf65X4-1" value="" style="whiteSpace=wrap;html=1;aspect=fixed;" parent="cl2BjI9Zqdi61-nf65X4-3" vertex="1">
          <mxGeometry x="18.064516129032256" width="261.93548387096774" height="261.93548387096774" as="geometry" />
        </mxCell>
        <mxCell id="cl2BjI9Zqdi61-nf65X4-2" value="container" style="text;html=1;align=center;verticalAlign=middle;whiteSpace=wrap;rounded=0;" parent="cl2BjI9Zqdi61-nf65X4-3" vertex="1">
          <mxGeometry x="110" y="11.428571428571427" width="60" height="34.285714285714285" as="geometry" />
        </mxCell>
        <mxCell id="cl2BjI9Zqdi61-nf65X4-4" value="graphics" style="rounded=0;whiteSpace=wrap;html=1;" parent="cl2BjI9Zqdi61-nf65X4-3" vertex="1">
          <mxGeometry x="45.16129032258065" y="80" width="81.29032258064515" height="40" as="geometry" />
        </mxCell>
        <mxCell id="cl2BjI9Zqdi61-nf65X4-5" value="graphics" style="rounded=0;whiteSpace=wrap;html=1;" parent="cl2BjI9Zqdi61-nf65X4-3" vertex="1">
          <mxGeometry x="162.5806451612903" y="80" width="81.29032258064515" height="40" as="geometry" />
        </mxCell>
        <mxCell id="cl2BjI9Zqdi61-nf65X4-7" value="graphics" style="rounded=0;whiteSpace=wrap;html=1;" parent="cl2BjI9Zqdi61-nf65X4-3" vertex="1">
          <mxGeometry x="162.5806451612903" y="140" width="81.29032258064515" height="40" as="geometry" />
        </mxCell>
        <mxCell id="cl2BjI9Zqdi61-nf65X4-8" value="graphics" style="rounded=0;whiteSpace=wrap;html=1;" parent="cl2BjI9Zqdi61-nf65X4-3" vertex="1">
          <mxGeometry x="45.16064516129032" y="140" width="81.29032258064515" height="40" as="geometry" />
        </mxCell>
        <mxCell id="cl2BjI9Zqdi61-nf65X4-16" value="graphics" style="rounded=0;whiteSpace=wrap;html=1;" parent="cl2BjI9Zqdi61-nf65X4-3" vertex="1">
          <mxGeometry x="45.16064516129032" y="200" width="81.29032258064515" height="40" as="geometry" />
        </mxCell>
        <mxCell id="cl2BjI9Zqdi61-nf65X4-17" value="graphics" style="rounded=0;whiteSpace=wrap;html=1;" parent="cl2BjI9Zqdi61-nf65X4-3" vertex="1">
          <mxGeometry x="162.5806451612903" y="200" width="81.29032258064515" height="40" as="geometry" />
        </mxCell>
        <mxCell id="su7OpnWBCNlr8yKs6VyV-1" value="" style="rounded=0;whiteSpace=wrap;html=1;" vertex="1" parent="1">
          <mxGeometry x="690" y="400" width="120" height="60" as="geometry" />
        </mxCell>
        <mxCell id="su7OpnWBCNlr8yKs6VyV-2" value="" style="rounded=0;whiteSpace=wrap;html=1;" vertex="1" parent="1">
          <mxGeometry x="880" y="250" width="280" height="80" as="geometry" />
        </mxCell>
        <mxCell id="su7OpnWBCNlr8yKs6VyV-3" value="" style="rounded=0;whiteSpace=wrap;html=1;" vertex="1" parent="1">
          <mxGeometry x="880" y="350" width="280" height="170" as="geometry" />
        </mxCell>
        <mxCell id="su7OpnWBCNlr8yKs6VyV-4" value="" style="rounded=0;whiteSpace=wrap;html=1;" vertex="1" parent="1">
          <mxGeometry x="880" y="540" width="280" height="90" as="geometry" />
        </mxCell>
        <mxCell id="su7OpnWBCNlr8yKs6VyV-5" value="" style="rounded=0;whiteSpace=wrap;html=1;" vertex="1" parent="1">
          <mxGeometry x="940" y="360" width="200" height="30" as="geometry" />
        </mxCell>
        <mxCell id="su7OpnWBCNlr8yKs6VyV-6" value="" style="rounded=0;whiteSpace=wrap;html=1;" vertex="1" parent="1">
          <mxGeometry x="940" y="405" width="200" height="55" as="geometry" />
        </mxCell>
        <mxCell id="su7OpnWBCNlr8yKs6VyV-7" value="" style="rounded=0;whiteSpace=wrap;html=1;" vertex="1" parent="1">
          <mxGeometry x="940" y="480" width="200" height="30" as="geometry" />
        </mxCell>
        <mxCell id="su7OpnWBCNlr8yKs6VyV-8" value="" style="rounded=0;whiteSpace=wrap;html=1;" vertex="1" parent="1">
          <mxGeometry x="890" y="410" width="30" height="50" as="geometry" />
        </mxCell>
      </root>
    </mxGraphModel>
  </diagram>
</mxfile>
